<svg xmlns="http://www.w3.org/2000/svg" version="1.1" xmlns:xlink="http://www.w3.org/1999/xlink" xmlns:svgjs="http://svgjs.dev/svgjs" width="268" height="268"><svg width="268" height="268" viewBox="0 0 268 268" fill="none" xmlns="http://www.w3.org/2000/svg">
<path fill-rule="evenodd" clip-rule="evenodd" d="M115.735 70.0421C119.732 70.0421 123.453 67.962 125.581 64.5356C127.708 61.1029 127.948 56.8089 126.223 53.1529C124.334 49.1459 123.283 44.6541 123.283 39.9134C123.283 22.852 136.95 9 153.784 9C170.618 9 184.285 22.852 184.285 39.9134C184.285 44.6541 183.228 49.1459 181.345 53.1592C179.614 56.8089 179.86 61.1029 181.987 64.5293C184.115 67.9556 187.83 70.0357 191.827 70.0357C211.525 70.0421 233.276 70.0421 233.276 70.0421C240.849 70.0421 247 76.2758 247 83.9579V126.184C247 130.261 244.916 134.051 241.498 136.201C238.073 138.345 233.799 138.549 230.198 136.737C226.169 134.727 221.636 133.611 216.845 133.611C200.011 133.611 186.344 147.463 186.344 164.524C186.344 181.586 200.011 195.438 216.845 195.438C221.636 195.438 226.169 194.315 230.204 192.318C233.805 190.506 238.073 190.71 241.485 192.854C244.904 195.004 246.981 198.787 246.981 202.865C247 223.148 247 245.091 247 245.091C247 252.766 240.849 259 233.276 259H74.2857C66.7123 259 60.5617 252.766 60.5617 245.091V202.947C60.5617 198.87 58.4843 195.087 55.0722 192.937C51.66 190.786 47.3981 190.576 43.7908 192.375C39.7743 194.359 35.2668 195.47 30.5012 195.47C13.6673 195.47 0 181.618 0 164.556C0 147.495 13.6673 133.643 30.5012 133.643C35.2668 133.643 39.7743 134.753 43.7971 136.731C47.3981 138.53 51.66 138.313 55.0659 136.163C58.478 134.019 60.5491 130.236 60.5491 126.165C60.5617 105.945 60.5617 83.9579 60.5617 83.9579C60.5617 76.2758 66.7123 70.0421 74.2857 70.0421H115.735Z" fill="#021C3A"></path>
</svg><style>@media (prefers-color-scheme: light) { :root { filter: none; } }
@media (prefers-color-scheme: dark) { :root { filter: none; } }
</style></svg>