<svg xmlns="http://www.w3.org/2000/svg"><symbol id="logo" viewBox="0 0 165 40"><path fill-rule="evenodd" clip-rule="evenodd" d="M96.78 40h6.755c2.93 0 5.307-2.404 5.307-5.366a5.377 5.377 0 00-1.958-4.16 4.871 4.871 0 00.511-2.181c0-2.693-2.162-4.878-4.825-4.878h-5.79a1.94 1.94 0 00-1.93 1.951v12.683A1.94 1.94 0 0096.78 40zM70.44 29.268h-5.79v-3.902a1.941 1.941 0 00-1.93-1.951c-1.065 0-1.93.874-1.93 1.951v12.683c0 1.077.865 1.951 1.93 1.951a1.94 1.94 0 001.93-1.951v-4.878h5.79v4.878A1.94 1.94 0 0072.37 40c1.065 0 1.93-.874 1.93-1.951V25.366a1.941 1.941 0 00-1.93-1.951 1.94 1.94 0 00-1.93 1.951v3.902zm7.43-3.902v7.805c0 3.769 3.026 6.83 6.754 6.83 3.727 0 6.754-3.061 6.754-6.83v-7.805a1.941 1.941 0 00-1.93-1.951c-1.065 0-1.93.874-1.93 1.951v7.805c0 1.615-1.296 2.927-2.894 2.927s-2.895-1.312-2.895-2.927v-7.805a1.941 1.941 0 00-1.93-1.951c-1.065 0-1.93.874-1.93 1.951zm25.666 10.732c.799 0 1.447-.656 1.447-1.464 0-.807-.648-1.463-1.447-1.463H98.71v2.927h4.825zm-.965-6.83a.97.97 0 00.965-.975.97.97 0 00-.965-.976h-3.86v1.951h3.86zM138.229 0h5.753c2.646 0 4.795 2.186 4.795 4.878a4.903 4.903 0 01-1.594 3.63c1.114 1.723 2.038 3.799 2.495 5.651.258 1.044-.367 2.106-1.393 2.368-1.027.262-2.069-.373-2.328-1.418-.445-1.804-1.448-3.894-2.61-5.353h-3.2v4.878c0 1.077-.86 1.952-1.918 1.952-1.058 0-1.918-.875-1.918-1.952V1.94c.007-1.072.864-1.94 1.918-1.94zM78.747 13.268h5.957l.98 2.178c.44.98 1.578 1.41 2.54.963.963-.448 1.387-1.607.947-2.586L83.47 1.14A1.916 1.916 0 0081.725 0c-.75 0-1.432.445-1.743 1.14L74.28 13.823c-.44.98-.017 2.138.947 2.586a1.905 1.905 0 002.541-.963l.98-2.178zm77.604 1.366V8.198l5.137 7.547a1.898 1.898 0 002.148.752 1.949 1.949 0 001.346-1.863V1.951c0-1.077-.859-1.95-1.918-1.95-1.058 0-1.918.873-1.918 1.95v6.437L156.011.84a1.9 1.9 0 00-2.149-.752 1.947 1.947 0 00-1.346 1.862v12.683c0 1.077.86 1.952 1.918 1.952 1.059 0 1.917-.875 1.917-1.952zM120.9 1.951c0-1.077.859-1.95 1.918-1.95h8.63c1.058 0 1.917.873 1.917 1.95 0 1.078-.859 1.952-1.917 1.952h-6.713v1.942h3.836c1.058 0 1.918.875 1.918 1.951 0 1.077-.86 1.952-1.918 1.952h-3.836v2.935h6.713c1.058 0 1.917.874 1.917 1.951s-.859 1.952-1.917 1.952h-8.63c-1.06 0-1.918-.874-1.918-1.952V1.951zM97.694 3.903h2.878c1.058 0 1.917-.874 1.917-1.952 0-1.077-.859-1.95-1.917-1.95h-9.59c-1.058 0-1.917.872-1.917 1.95 0 1.078.859 1.952 1.918 1.952h2.876v10.731c0 1.077.86 1.952 1.918 1.952 1.059 0 1.918-.875 1.918-1.952V3.903zm15.822 0h2.878c1.058 0 1.917-.874 1.917-1.952 0-1.077-.859-1.95-1.917-1.95h-9.59c-1.059 0-1.917.872-1.917 1.95 0 1.078.858 1.952 1.917 1.952h2.877v10.731c0 1.077.859 1.952 1.918 1.952 1.058 0 1.917-.875 1.917-1.952V3.903zM68.509 0c2.663 0 4.824 2.186 4.824 4.878 0 2.693-2.161 4.878-4.824 4.878h-3.86v4.878a1.941 1.941 0 01-1.93 1.952 1.941 1.941 0 01-1.93-1.952V1.951a1.94 1.94 0 011.93-1.95h5.79zm11.993 9.366h2.448l-1.225-2.724-1.223 2.724zm59.645-3.512h3.835a.968.968 0 00.959-.976.968.968 0 00-.959-.975h-3.835v1.95zm-75.498 0h3.86a.97.97 0 00.965-.976.97.97 0 00-.965-.975h-3.86v1.95z"/><path d="M50.175 0h-1.93v40h1.93V0z"/><path fill-rule="evenodd" clip-rule="evenodd" d="M17.739 10.505a1.78 1.78 0 001.51-.842 1.824 1.824 0 00.098-1.74 4.727 4.727 0 01-.451-2.025c0-2.609 2.095-4.727 4.675-4.727 2.58 0 4.675 2.118 4.675 4.727a4.75 4.75 0 01-.45 2.025 1.817 1.817 0 00.098 1.739c.326.524.895.842 1.508.842h6.353c1.16 0 2.103.954 2.103 2.128v6.457c0 .623-.32 1.203-.843 1.532a1.769 1.769 0 01-1.732.082 4.58 4.58 0 00-2.047-.478c-2.58 0-4.675 2.118-4.675 4.726 0 2.61 2.095 4.727 4.675 4.727.735 0 1.43-.172 2.048-.477a1.763 1.763 0 011.73.082c.523.329.841.907.841 1.53.003 3.102.003 6.457.003 6.457 0 1.174-.942 2.127-2.103 2.127H11.386c-1.16 0-2.104-.953-2.104-2.127v-6.444c0-.623-.318-1.201-.84-1.53a1.765 1.765 0 00-1.73-.086 4.593 4.593 0 01-2.037.473C2.095 29.683 0 27.565 0 24.956c0-2.608 2.095-4.726 4.675-4.726.73 0 1.421.17 2.038.472a1.762 1.762 0 001.727-.087c.523-.328.84-.906.84-1.529.002-3.092.002-6.454.002-6.454 0-1.174.943-2.127 2.104-2.127h6.353z"/></symbol><symbol id="search-ic" viewBox="0 0 18 18"><path d="M6.686 0a6.686 6.686 0 016.685 6.686 6.702 6.702 0 01-1.604 4.35l.278.278h.812L18 16.457 16.457 18l-5.143-5.143v-.812l-.277-.278a6.702 6.702 0 01-4.351 1.604A6.686 6.686 0 016.686 0zm0 2.057a4.61 4.61 0 00-4.629 4.629 4.61 4.61 0 004.629 4.628 4.61 4.61 0 004.628-4.628 4.61 4.61 0 00-4.628-4.629z"/></symbol><symbol id="vk-ic" viewBox="0 0 18 18"><path d="M9.804 14C3.654 14 .146 10.246 0 4h3.08c.102 4.585 2.373 6.527 4.172 6.927V4h2.9v3.954c1.777-.17 3.643-1.972 4.273-3.954h2.9c-.483 2.442-2.507 4.244-3.946 4.985 1.44.6 3.744 2.172 4.621 5.015h-3.193a5.402 5.402 0 00-4.655-3.574V14h-.348z"/></symbol><symbol id="x-ic" viewBox="0 0 18 18"><path fill-rule="evenodd" clip-rule="evenodd" d="M2.01 16h1.22l4.776-5.431L11.803 16H16l-5.659-8.054L15.537 2h-1.241L9.784 7.143 6.165 2H2l5.47 7.797L2.01 16zM3.684 2.915h1.883l8.74 12.22h-1.903l-8.72-12.22z"/></symbol><symbol id="pin-ic" viewBox="0 0 18 18"><path d="M9.394.5C4.811.5 2.5 3.826 2.5 6.6c0 1.68.628 3.174 1.975 3.73.221.092.419.003.483-.244.045-.171.15-.603.197-.784.065-.245.04-.33-.139-.544-.388-.464-.637-1.064-.637-1.915 0-2.468 1.824-4.677 4.75-4.677 2.59 0 4.013 1.603 4.013 3.742 0 2.816-1.23 5.192-3.058 5.192-1.01 0-1.764-.844-1.523-1.88.29-1.238.852-2.572.852-3.466 0-.799-.424-1.466-1.3-1.466-1.032 0-1.861 1.08-1.861 2.528 0 .921.307 1.545.307 1.545l-1.24 5.32c-.369 1.58-.056 3.516-.029 3.711.016.116.163.144.23.057.094-.126 1.323-1.662 1.74-3.196.12-.434.68-2.684.68-2.684.334.648 1.314 1.216 2.356 1.216 3.1 0 5.204-2.86 5.204-6.69C15.5 3.196 13.077.5 9.394.5z"/></symbol><symbol id="tg-ic" viewBox="0 0 18 18"><path fill-rule="evenodd" clip-rule="evenodd" d="M1.169 8.027c4.563-1.976 7.606-3.278 9.129-3.908C14.645 2.323 15.548 2.01 16.137 2c.13-.002.419.03.607.181.158.128.201.3.222.421.021.121.047.397.026.613-.235 2.46-1.255 8.428-1.773 11.183-.22 1.166-.652 1.557-1.07 1.595-.909.083-1.6-.597-2.48-1.17-1.377-.898-2.156-1.457-3.493-2.332-1.546-1.012-.544-1.569.337-2.478.23-.238 4.236-3.858 4.313-4.186.01-.041.02-.194-.072-.275-.092-.081-.227-.054-.324-.032-.139.032-2.34 1.477-6.603 4.337-.625.427-1.191.634-1.698.623-.559-.012-1.634-.314-2.433-.572-.98-.316-1.76-.484-1.692-1.022.035-.28.424-.566 1.165-.86z"/></symbol><symbol id="linked-ic" viewBox="0 0 18 18"><path d="M5.571 3.25c0 1.243-1.023 2.25-2.285 2.25C2.023 5.5 1 4.493 1 3.25S2.023 1 3.286 1C4.548 1 5.57 2.007 5.57 3.25zM1.508 7c0-.276.227-.5.508-.5h2.54c.28 0 .507.224.507.5v9.5c0 .276-.227.5-.507.5h-2.54a.504.504 0 01-.508-.5V7zm5.587-.5h2.286c.28 0 .508.224.508.5v.5c1.016-1.25 2.793-1.25 3.81-1.25C16.491 6.25 17 9.5 17 11v5.5c0 .276-.227.5-.508.5h-2.286a.504.504 0 01-.508-.5V11c0-.75-.254-2-1.777-2-1.524 0-2.032 1.5-2.032 2v5.5c0 .276-.228.5-.508.5H7.095a.504.504 0 01-.508-.5V7c0-.276.228-.5.508-.5z"/></symbol><symbol id="close-ic" viewBox="0 0 18 18"><path d="M16 3.41L14.59 2 9 7.59 3.41 2 2 3.41 7.59 9 2 14.59 3.41 16 9 10.41 14.59 16 16 14.59 10.41 9 16 3.41z"/></symbol><symbol id="download-ic" viewBox="0 0 24 24"><path d="M5 20h14v-2H5m14-9h-4V3H9v6H5l7 7 7-7z"/></symbol><symbol id="more-ic" viewBox="0 0 18 18"><circle cx="2" cy="9" r="2"/><circle cx="9" cy="9" r="2"/><circle cx="16" cy="9" r="2"/></symbol><symbol id="reddit-ic" viewBox="0 0 22 22"><path d="M22 10.573c0-1.411-1.083-2.556-2.416-2.556-.658 0-1.238.265-1.663.715-1.643-1.247-3.925-2.065-6.438-2.167l1.102-5.46 3.577.797c.038.961.792 1.738 1.72 1.738.947 0 1.72-.818 1.72-1.82 0-1.002-.773-1.82-1.72-1.82-.676 0-1.256.409-1.527 1.023l-4.002-.9a.46.46 0 00-.328.061.497.497 0 00-.194.286l-1.218 6.095c-2.57.081-4.871.879-6.534 2.167a2.369 2.369 0 00-1.662-.715C1.083 8.017 0 9.162 0 10.573c0 1.043.58 1.922 1.43 2.331a5.058 5.058 0 00-.057.777c0 3.927 4.31 7.097 9.646 7.097 5.336 0 9.647-3.17 9.647-7.097 0-.265-.02-.51-.058-.756.793-.41 1.392-1.31 1.392-2.352zm-16.529 1.82c0-1.002.773-1.82 1.72-1.82.948 0 1.721.818 1.721 1.82 0 1.002-.773 1.82-1.72 1.82-.948 0-1.721-.818-1.721-1.82zm9.608 4.806c-1.18 1.247-3.422 1.33-4.079 1.33-.657 0-2.92-.103-4.08-1.33a.501.501 0 010-.675.438.438 0 01.639 0c.734.777 2.32 1.063 3.46 1.063 1.14 0 2.707-.286 3.46-1.063a.438.438 0 01.639 0c.135.205.135.49-.039.675zm-.31-2.986c-.947 0-1.72-.818-1.72-1.82 0-1.002.774-1.82 1.72-1.82.948 0 1.721.818 1.721 1.82 0 1.002-.773 1.82-1.72 1.82z"/></symbol><symbol id="tumblr-ic" viewBox="0 0 22 22"><path d="M12.6809 22C9.3729 22 6.9069 20.298 6.9069 16.226V9.704H3.8999V6.172C7.2099 5.313 8.5929 2.466 8.7529 0H12.1879V5.6H16.1959V9.704H12.1879V15.383C12.1879 17.085 13.0479 17.673 14.4149 17.673H16.3569V22H12.6809Z"/></symbol><symbol id="weibo-ic" viewBox="0 0 22 22"><path d="M17.97.533a5.8 5.8 0 012.53 1.8l.001.002a6.61 6.61 0 011.37 2.939 6.961 6.961 0 01-.154 3.297v.004a.909.909 0 01-.42.537.778.778 0 01-.642.057.873.873 0 01-.49-.46 1.009 1.009 0 01-.052-.704 4.963 4.963 0 00.111-2.349 4.712 4.712 0 00-.975-2.094 4.122 4.122 0 00-1.8-1.278 3.79 3.79 0 00-2.14-.12.767.767 0 01-.632-.127.88.88 0 01-.235-.25 1.009 1.009 0 01-.014-1.023.89.89 0 01.228-.258.804.804 0 01.3-.143 5.33 5.33 0 013.013.17z"/><path fill-rule="evenodd" clip-rule="evenodd" d="M5.16 12.99c.751-1.673 2.711-2.62 4.442-2.125v-.002c1.797.515 2.712 2.367 1.978 4.172-.744 1.84-2.884 2.824-4.698 2.183-1.749-.621-2.491-2.522-1.723-4.228zm3.657.863c.219.098.498-.015.627-.255.121-.246.043-.514-.172-.599-.214-.089-.485.024-.614.255-.124.23-.06.504.159.599zm-2.214 1.98c.568.284 1.324.014 1.676-.603v.002c.348-.623.164-1.335-.408-1.604-.564-.26-1.294.01-1.642.608-.352.603-.184 1.32.374 1.597z"/><path fill-rule="evenodd" clip-rule="evenodd" d="M16.515 9.635l.01.003h.002c1.264.43 2.67 1.467 2.67 3.3 0 3.027-3.984 6.84-9.966 6.84C4.667 19.778 0 17.35 0 13.363c0-2.09 1.203-4.507 3.274-6.774 2.772-3.041 6.004-4.426 7.22-3.093.537.59.588 1.604.244 2.82-.181.607.524.272.524.272 2.239-1.031 4.194-1.089 4.908.03.382.598.347 1.432-.005 2.404-.161.44.047.51.35.613zM2.217 14.31c.235 2.62 3.381 4.43 7.025 4.035 3.64-.392 6.402-2.837 6.162-5.464-.231-2.62-3.377-4.431-7.021-4.034-3.64.396-6.403 2.837-6.166 5.463z"/><path d="M18.279 4.534a2.816 2.816 0 00-1.232-.876 2.587 2.587 0 00-1.467-.08.693.693 0 00-.26.122.766.766 0 00-.197.222.86.86 0 00-.102.599.8.8 0 00.314.501.672.672 0 00.546.11 1.32 1.32 0 011.319.467c.343.42.438.99.287 1.489a.873.873 0 00.046.608c.088.188.24.33.423.396a.672.672 0 00.554-.05.786.786 0 00.362-.464 3.4 3.4 0 00.076-1.61 3.227 3.227 0 00-.669-1.435v.001z"/></symbol><symbol id="wordpress-ic" viewBox="0 0 22 22"><path fill-rule="evenodd" clip-rule="evenodd" d="M11 0C4.935 0 0 4.934 0 11s4.935 11 11 11 11-4.934 11-11S17.065 0 11 0zM8.229 20.45l2.948-8.567 3.071 8.414a9.801 9.801 0 01-3.248.55 9.818 9.818 0 01-2.771-.396zM1.902 7.23l4.566 12.511C3.313 18.1 1.153 14.797 1.153 11c0-1.334.266-2.607.75-3.77zm18.015-.405c.006.12.009.243.009.37 0 1.024-.191 2.175-.768 3.615l-2.956 8.548A9.85 9.85 0 0020.847 11a9.786 9.786 0 00-.93-4.175zm-2.469-3.261A9.805 9.805 0 0011 1.153a9.845 9.845 0 00-8.14 4.31c.127.002.246.004.355.004 1.055 0 2.69-.128 2.69-.128.544-.032.608.767.065.831 0 0-.547.065-1.156.097l3.677 10.935 2.209-6.626-1.573-4.31a18.636 18.636 0 01-1.059-.096c-.544-.032-.48-.864.064-.832 0 0 1.667.129 2.66.129 1.055 0 2.69-.129 2.69-.129.544-.032.608.768.065.832 0 0-.549.064-1.156.096L16.04 17.12l1.007-3.365c.437-1.396.769-2.4.769-3.264 0-1.247-.448-2.112-.833-2.784-.511-.832-.991-1.536-.991-2.368 0-.851.593-1.65 1.457-1.774z"/></symbol><symbol id="viber-ic" viewBox="0 0 22 22"><path d="M10.868 1.147c.155-.14.264-.158.803-.142.28.01.694.042.919.068a9.372 9.372 0 013.063.887c.992.475 1.626.923 2.466 1.74.786.771 1.222 1.356 1.685 2.263.645 1.265 1.011 2.769 1.074 4.425.023.565.007.69-.125.852-.252.313-.803.261-.992-.09-.06-.117-.076-.217-.096-.668a11.434 11.434 0 00-.181-1.679c-.39-2.101-1.422-3.78-3.067-4.984-1.372-1.007-2.79-1.497-4.647-1.604-.628-.035-.737-.058-.879-.164-.264-.204-.278-.682-.023-.904zm3.94 4.157c-.665-.387-1.647-.674-2.542-.745-.324-.026-.502-.09-.625-.23a.577.577 0 01-.05-.73c.173-.26.437-.303 1.227-.186 2.006.287 3.559 1.197 4.577 2.676a6.3 6.3 0 011.05 2.86c.044.383.044 1.084-.003 1.2a.741.741 0 01-.3.32c-.13.064-.403.058-.555-.02-.255-.126-.331-.326-.331-.868 0-.836-.221-1.717-.605-2.402a4.96 4.96 0 00-1.844-1.875zm1.116 4.303c-.195.174-.555.18-.773.016-.159-.116-.208-.239-.245-.571-.043-.443-.122-.752-.257-1.04-.291-.61-.803-.926-1.67-1.03-.406-.048-.528-.093-.66-.245a.594.594 0 01.185-.903c.125-.062.178-.068.456-.052.172.01.426.039.562.068.65.135 1.15.377 1.576.768.549.507.85 1.12.982 2.001.089.575.052.8-.156.988zm4.938 8.48c-.245.616-1.197 1.771-1.861 2.265-.602.445-1.028.617-1.59.642-.462.023-.654-.016-1.246-.255-4.64-1.868-8.344-4.657-11.285-8.489-1.537-2-2.707-4.076-3.507-6.23-.466-1.255-.489-1.8-.106-2.443.166-.27.87-.942 1.382-1.317.853-.62 1.246-.848 1.56-.913.215-.045.588-.01.826.074.116.039.294.13.397.194.627.407 2.376 2.592 2.947 3.683.327.623.437 1.084.334 1.426-.106.368-.28.562-1.064 1.179-.314.248-.608.503-.654.57-.12.169-.215.498-.215.73.003.54.36 1.517.83 2.27.363.584 1.014 1.332 1.658 1.907.757.678 1.425 1.14 2.178 1.504.968.471 1.56.591 1.993.394.109-.048.225-.113.261-.142.033-.029.288-.332.565-.668.536-.659.658-.765 1.025-.888.466-.155.942-.113 1.42.126.364.184 1.157.665 1.67 1.014.674.461 2.115 1.61 2.31 1.84.343.413.403.942.171 1.526z"/></symbol><symbol id="whatsapp-ic" viewBox="0 0 22 22"><path d="M14.17 12.297c.25.091 1.596.75 1.87.886.053.027.103.051.15.073.19.092.32.154.374.246.069.113.069.659-.16 1.295-.227.636-1.32 1.217-1.847 1.295-.471.07-1.068.1-1.724-.108a15.763 15.763 0 01-1.56-.573c-2.566-1.103-4.3-3.579-4.628-4.046l-.048-.068-.002-.002C6.451 11.102 5.48 9.814 5.48 8.48c0-1.255.62-1.913.904-2.215l.054-.058c.25-.272.547-.34.73-.34a10.993 10.993 0 01.586.01c.16-.001.358-.002.554.467.075.18.185.445.3.726.237.571.498 1.205.544 1.296.068.136.114.295.023.477l-.039.078c-.068.14-.119.242-.235.377-.046.053-.093.11-.14.167a4.527 4.527 0 01-.27.31c-.138.136-.28.283-.12.556.16.273.708 1.165 1.522 1.887a7.074 7.074 0 002.02 1.27c.075.033.136.06.181.082.274.136.434.113.593-.068.16-.182.684-.796.867-1.068.182-.273.365-.228.616-.137z"/><path fill-rule="evenodd" clip-rule="evenodd" d="M11.046 0a10.91 10.91 0 017.749 3.197A10.81 10.81 0 0122 10.91c-.003 6.011-4.917 10.902-10.954 10.902h-.004c-1.834 0-3.635-.459-5.235-1.327L0 22l1.554-5.65A10.841 10.841 0 01.092 10.9C.094 4.89 5.008 0 11.046 0zm-.004 19.97h.004c5.018 0 9.102-4.065 9.104-9.061a8.985 8.985 0 00-2.664-6.41A9.064 9.064 0 0011.05 1.84c-5.022 0-9.107 4.065-9.109 9.06 0 1.713.481 3.38 1.392 4.823l.217.342-.92 3.344 3.446-.9.332.197c1.398.825 3 1.262 4.634 1.263z"/></symbol></svg>